PathFileType	4	(X/Y/Z)	Walk5.trc
DataRate	CameraRate	NumFrames	NumMarkers	Units	OrigDataRate	OrigDataStartFrame	OrigNumFrames
200.000000	200.000000	4	61	mm	200.000000	421	487
Frame#	Times		LFHD		RFHD		CLAV		LASI		RASI		RACR1		RUA1		RFA1		RWRU		RCAR		LACR1		LUA1		LWRU		LCAR		RTH3		LTH1		LTH3		LTH2		LTH4		LLFC		LTB1		LTB2		LTB4		LFA1		RTB1		LToe		LTB3		STRN		RTB4		RWRR		RTB3		RMFC		RMT5		RTH2		LBHD		RMT1		RTB2		LElbow		RLFC		RMMAL		LMFC		RTH4		RToe		LWRR		T10		RElbow		RTH1		LPSI		RBack		RBHD		LMT5		RLMAL		RCAL		RPSI		LElbowM		LMMAL		RElbowM		LCAL		LLMAL		LMT1		C7
			X1	Y1	Z1	X2	Y2	Z2	X3	Y3	Z3	X4	Y4	Z4	X5	Y5	Z5	X6	Y6	Z6	X7	Y7	Z7	X8	Y8	Z8	X9	Y9	Z9	X10	Y10	Z10	X11	Y11	Z11	X12	Y12	Z12	X13	Y13	Z13	X14	Y14	Z14	X15	Y15	Z15	X16	Y16	Z16	X17	Y17	Z17	X18	Y18	Z18	X19	Y19	Z19	X20	Y20	Z20	X21	Y21	Z21	X22	Y22	Z22	X23	Y23	Z23	X24	Y24	Z24	X25	Y25	Z25	X26	Y26	Z26	X27	Y27	Z27	X28	Y28	Z28	X29	Y29	Z29	X30	Y30	Z30	X31	Y31	Z31	X32	Y32	Z32	X33	Y33	Z33	X34	Y34	Z34	X35	Y35	Z35	X36	Y36	Z36	X37	Y37	Z37	X38	Y38	Z38	X39	Y39	Z39	X40	Y40	Z40	X41	Y41	Z41	X42	Y42	Z42	X43	Y43	Z43	X44	Y44	Z44	X45	Y45	Z45	X46	Y46	Z46	X47	Y47	Z47	X48	Y48	Z48	X49	Y49	Z49	X50	Y50	Z50	X51	Y51	Z51	X52	Y52	Z52	X53	Y53	Z53	X54	Y54	Z54	X55	Y55	Z55	X56	Y56	Z56	X57	Y57	Z57	X58	Y58	Z58	X59	Y59	Z59	X60	Y60	Z60	X61	Y61	Z61

421	2.105	1161.2	1578.5	-68.363	1153.8	1579.9	31.278	1147.9	1292.7	-19.262	1129.5	892.5	-118.39	1117.6	887.69	129.06	1083.3	1332.3	145.61	1082	1164.5	203.32	1166.2	893.03	260.55	1257.4	812.45	225.32	1269.4	741.2	267.07	1068.2	1335.1	-172.35	1014.6	1169.5	-228.68	911.74	775.65	-268.53	852.14	725.88	-289.6	1033.2	548.56	162.31	1114.1	726.8	-189.28	1166.8	568.71	-144.84	1192.5	670.64	-151.66	1140.4	646.47	-169.35	1212.9	439.81	-115.66	1248	344.88	-42.721	1229.7	255.16	-95.527	1237.1	259.27	-35.455	906.57	902.03	-270.73	933.06	306.19	110.43	1372.1	28.813	-18.432	1231.7	175.76	-25.778	1171.3	1157.5	-13.444	859.55	259.86	102.4	1205.3	779.92	255.54	786.08	216.58	91.749	984.95	399.79	13.405	654.15	81.45	97.535	1095.1	631.76	152.32	1033	1489.8	-98.49	684.92	69.11	16.998	831.63	299.19	141.23	941.02	1030.9	-242.2	998.3	400.68	140.8	689.64	200.9	26.428	1185.5	433.66	13.694	1043	631.35	177.41	704.84	25.409	47.131	847.55	798.89	-253.99	959.04	1183.1	-7.7424	1080.6	998.1	242.36	1055.1	715.64	194.63	949.86	943.29	-52.075	958.74	1272.4	61.81	1024.8	1498.1	43.852	1287.2	23.995	-75.61	664.12	202.14	104.55	627.45	239.69	64.002	948.9	935.93	48.387	932.61	1014.8	-168.1	1188.4	83.764	12.224	1051.1	987.29	168.78	1123.6	35.354	-29.138	1182.1	62.962	-68.921	1316.4	30.528	7.6985	1034.2	1393.7	-20.802
422	2.11	1169.2	1579.3	-68.861	1161.8	1581	30.775	1155.8	1293.6	-19.06	1137.1	893.73	-118.88	1125.1	888.38	128.75	1091.1	1333.3	145.56	1089.8	1165.4	203.14	1171.9	892.87	260.61	1262	810.77	225.76	1272.9	739.55	267.81	1076.6	1336	-172.28	1024.6	1169.8	-228.88	926.95	775.03	-270.52	868.5	724.8	-292.75	1046.1	548.44	162.53	1120.9	727.61	-189.57	1172.2	569.02	-145.26	1198.9	670.65	-152.12	1146.5	647.03	-169.75	1217	439.43	-116.16	1251.4	344.18	-43.237	1231.8	254.62	-95.899	1239.4	258.7	-35.848	919.94	901.22	-272.46	947.76	306.24	110.42	1372.2	28.287	-18.428	1233	175.27	-26.054	1178.9	1158.3	-13.137	873.61	260.85	102.51	1209.3	779.12	255.96	799.49	218.52	91.964	1001.2	398.63	13.41	666.42	85.287	98.976	1106.7	632.72	152.13	1041.1	1490.5	-98.781	697.63	71.686	19.045	846.33	300.37	141.64	952.31	1030.7	-243.47	1013.5	400.24	141.11	702.85	203.96	26.812	1190.2	433.62	13.255	1054.5	631.42	177.31	716.34	26.718	50.044	862.31	797.25	-256.39	966.72	1184.1	-7.809	1087.8	999.02	241.98	1065.3	715.97	194.34	957.31	944.21	-51.807	966.46	1273.5	61.749	1032.8	1499.2	43.6	1287.1	23.953	-75.912	677.27	205.8	104.89	640.77	243.47	64.107	956.46	936.62	48.575	943.55	1014.3	-169.38	1188.6	83.793	12.102	1058.6	988.38	168.21	1123.5	35.416	-29.277	1182.2	62.921	-69.053	1316.3	30.402	7.6623	1042.1	1394.7	-20.882
423	2.115	1177.3	1580.1	-69.316	1169.9	1582.1	30.313	1163.6	1294.5	-18.82	1144.7	894.98	-119.35	1132.6	889.21	128.48	1098.7	1334.4	145.57	1097.5	1166.4	202.99	1177.6	892.77	260.69	1266.5	809.14	226.2	1276.2	737.96	268.53	1084.9	1336.9	-172.16	1034.5	1170.2	-229.03	942.38	774.53	-272.48	885.16	723.82	-295.88	1058.9	548.59	162.77	1127.7	728.45	-189.83	1177.3	569.33	-145.66	1205	670.64	-152.51	1152.5	647.61	-170.12	1220.9	439.03	-116.66	1254.5	343.5	-43.776	1233.7	254.1	-96.287	1241.6	258.15	-36.26	933.43	900.48	-274.14	962.66	306.52	110.4	1372.2	27.897	-18.461	1234.2	174.81	-26.358	1186.5	1159.1	-12.781	887.95	261.95	102.6	1213.3	778.41	256.39	813.29	220.44	92.15	1017.5	397.91	13.418	679.68	88.851	100.42	1118.1	633.93	152.01	1049.1	1491.3	-99.028	711.31	74.109	21.039	861.23	301.61	142	963.61	1030.6	-244.69	1028.6	400.1	141.42	716.52	206.8	27.12	1194.6	433.53	12.808	1065.9	631.71	177.25	729.13	28.155	52.873	877.31	795.65	-258.73	974.34	1185.2	-7.8705	1095	1000	241.63	1075.3	716.53	194.11	964.76	945.21	-51.623	974.08	1274.7	61.687	1040.8	1500.5	43.436	1287.1	23.944	-76.189	690.85	209.16	105.15	654.34	246.74	64.093	963.99	937.43	48.681	954.51	1013.8	-170.62	1188.8	83.832	11.975	1066.2	989.52	167.67	1123.5	35.456	-29.404	1182.2	62.882	-69.186	1316.2	30.358	7.6041	1049.9	1395.8	-20.926
424	2.12	1185.4	1581	-69.722	1177.9	1583.3	29.899	1171.3	1295.6	-18.547	1152.2	896.23	-119.8	1140	890.2	128.24	1106.2	1335.6	145.62	1105.2	1167.5	202.88	1183.1	892.75	260.78	1270.8	807.57	226.63	1279.4	736.44	269.24	1093.1	1338	-172	1044.3	1170.7	-229.15	958.02	774.17	-274.42	902.08	722.96	-298.96	1071.5	549	163.04	1134.4	729.31	-190.04	1182.3	569.63	-146.04	1211.1	670.6	-152.84	1158.3	648.2	-170.45	1224.4	438.64	-117.14	1257.4	342.84	-44.324	1235.4	253.59	-96.681	1243.5	257.63	-36.679	947.02	899.83	-275.78	977.74	307.02	110.39	1372.3	27.613	-18.519	1235.2	174.38	-26.68	1194	1160.1	-12.379	902.56	263.14	102.69	1217.1	777.78	256.84	827.46	222.3	92.32	1033.6	397.62	13.44	693.91	92.097	101.84	1129.5	635.38	151.95	1057.1	1492.2	-99.232	725.93	76.351	22.959	876.32	302.9	142.32	974.89	1030.5	-245.87	1043.9	400.25	141.74	730.62	209.37	27.36	1198.5	433.42	12.36	1077.2	632.24	177.24	743.16	29.68	55.581	892.53	794.12	-261	981.91	1186.4	-7.9311	1102.2	1001	241.28	1085.2	717.29	193.93	972.23	946.28	-51.519	981.63	1275.9	61.621	1048.7	1502	43.358	1287	23.958	-76.442	704.83	212.18	105.33	668.14	249.47	63.984	971.49	938.34	48.71	965.49	1013.4	-171.83	1188.9	83.875	11.847	1073.7	990.72	167.16	1123.5	35.481	-29.519	1182.1	62.845	-69.314	1316.2	30.375	7.5312	1057.7	1396.9	-20.943
